<svg xmlns="http://www.w3.org/2000/svg" viewBox="0 0 192 192">
  <rect width="192" height="192" fill="#2563eb" rx="32" ry="32"/>
  <path d="M50 96a46 46 0 0 1 92 0 46 46 0 0 1-92 0zM96 70v52M70 96h52" stroke="#ffffff" stroke-width="12" stroke-linecap="round"/>
  <path d="M58 58l76 76M134 58l-76 76" stroke="#ffffff" stroke-width="12" stroke-linecap="round"/>
  <path d="M96 50a46 46 0 0 1 0 92V50z" fill="#1d4ed8"/>
  <path d="M96 50v92a46 46 0 0 0 0-92z" fill="#3b82f6"/>
  <circle cx="96" cy="96" r="20" fill="#ffffff"/>
  <path d="M96 76a20 20 0 0 1 0 40V76z" fill="#e5e7eb"/>
</svg>
